<svg xmlns="http://www.w3.org/2000/svg" xmlns:xlink="http://www.w3.org/1999/xlink" width="120" zoomAndPan="magnify" viewBox="0 0 90.75 90.75" height="120" preserveAspectRatio="xMidYMid meet" version="1.0"><defs><clipPath id="f5f6c1d729"><path d="M 16.882812 6.828125 L 73.726562 6.828125 L 73.726562 83.867188 L 16.882812 83.867188 Z M 16.882812 6.828125 " clip-rule="nonzero"/></clipPath></defs><g clip-path="url(#f5f6c1d729)"><path fill="#000000" d="M 70.878906 38.058594 L 66.949219 38.058594 L 66.949219 28.507812 C 66.964844 16.550781 57.246094 6.828125 45.296875 6.828125 C 33.34375 6.828125 23.625 16.550781 23.625 28.507812 L 23.625 38.058594 L 19.714844 38.058594 C 18.15625 38.058594 16.894531 39.320312 16.894531 40.878906 L 16.894531 81.0625 C 16.894531 82.601562 18.15625 83.867188 19.714844 83.867188 L 70.894531 83.867188 C 72.449219 83.867188 73.710938 82.601562 73.710938 81.046875 L 73.710938 40.878906 C 73.695312 39.320312 72.433594 38.058594 70.878906 38.058594 Z M 29.261719 28.507812 C 29.261719 19.660156 36.457031 12.464844 45.296875 12.464844 C 54.136719 12.464844 61.328125 19.660156 61.328125 28.507812 L 61.328125 38.058594 L 29.261719 38.058594 Z M 48.113281 62.988281 L 48.113281 70.398438 C 48.113281 71.957031 46.851562 73.21875 45.296875 73.21875 C 43.742188 73.21875 42.476562 71.957031 42.476562 70.398438 L 42.476562 62.988281 C 40.535156 61.972656 39.210938 59.9375 39.210938 57.609375 C 39.210938 54.253906 41.9375 51.539062 45.28125 51.539062 C 48.636719 51.539062 51.347656 54.265625 51.347656 57.609375 C 51.378906 59.9375 50.054688 61.972656 48.113281 62.988281 Z M 48.113281 62.988281 " fill-opacity="1" fill-rule="nonzero"/></g></svg>